<?xml version="1.0" encoding="UTF-8" standalone="no"?>
<svg
   viewbox="0 0 15 19"
   width="15"
   height="19"
   version="1.1"
   id="svg6"
   sodipodi:docname="AnimatedDirectionalSprite2D.svg"
   inkscape:version="1.3.1 (91b66b0783, 2023-11-16)"
   xmlns:inkscape="http://www.inkscape.org/namespaces/inkscape"
   xmlns:sodipodi="http://sodipodi.sourceforge.net/DTD/sodipodi-0.dtd"
   xmlns="http://www.w3.org/2000/svg"
   xmlns:svg="http://www.w3.org/2000/svg">
  <sodipodi:namedview
     id="namedview6"
     pagecolor="#ffffff"
     bordercolor="#000000"
     borderopacity="0.25"
     inkscape:showpageshadow="2"
     inkscape:pageopacity="0.0"
     inkscape:pagecheckerboard="0"
     inkscape:deskcolor="#d1d1d1"
     inkscape:zoom="42.789474"
     inkscape:cx="7.4901599"
     inkscape:cy="9.5"
     inkscape:window-width="1920"
     inkscape:window-height="1009"
     inkscape:window-x="1912"
     inkscape:window-y="-8"
     inkscape:window-maximized="1"
     inkscape:current-layer="g5" />
  <defs
     id="defs1" />
  <g
     transform="matrix(1, 0, 0, 1, -0.9999999999999999, 0)"
     id="g6">
    <g
       transform="matrix(1, 0, 0, 1, 0, 0)"
       id="g5">
      <g
         transform="matrix(1, 0, 0, 1, 0, 0)"
         id="g4">
        <g
           transform="matrix(1, 0, 0, 1, 0, 0)"
           id="g3">
          <path
             class="vector-data"
             d="M7.000000,0.000000C5.895431,0.000000 5.000000,0.895431 5.000000,2.000000 C5.000000,2.000000 12.000000,2.000000 12.000000,2.000000 C13.104569,2.000000 14.000000,2.895431 14.000000,4.000000 C14.000000,4.000000 14.000000,10.000000 14.000000,10.000000 C15.104569,10.000000 16.000000,9.104569 16.000000,8.000000 C16.000000,8.000000 16.000000,2.000000 16.000000,2.000000 C16.000000,0.895431 15.104569,0.000000 14.000000,0.000000 C14.000000,0.000000 7.000000,0.000000 7.000000,0.000000 L 7.000000,0.000000 ZM7.000000,0.000000C5.895431,0.000000 5.000000,0.895431 5.000000,2.000000 C5.000000,2.000000 12.000000,2.000000 12.000000,2.000000 C13.104569,2.000000 14.000000,2.895431 14.000000,4.000000 C14.000000,4.000000 14.000000,10.000000 14.000000,10.000000 C15.104569,10.000000 16.000000,9.104569 16.000000,8.000000 C16.000000,8.000000 16.000000,2.000000 16.000000,2.000000 C16.000000,0.895431 15.104569,0.000000 14.000000,0.000000 C14.000000,0.000000 7.000000,0.000000 7.000000,0.000000 L 7.000000,0.000000 Z"
             fill="#FC7F7F"
             fill-opacity="0.400"
             stroke="#000000"
             stroke-width="0"
             stroke-dasharray="none"
             stroke-dashoffset="0"
             stroke-linecap="butt"
             stroke-linejoin="miter"
             stroke-miterlimit="4"
             id="path1"
             style="fill:#8da5f3;fill-opacity:0.40000001" />
          <path
             class="vector-data"
             d="M5.000000,2.000000C3.895431,2.000000 3.000000,2.895431 3.000000,4.000000 C3.000000,4.000000 10.000000,4.000000 10.000000,4.000000 C11.104569,4.000000 12.000000,4.895431 12.000000,6.000000 C12.000000,6.000000 12.000000,13.000000 12.000000,13.000000 C13.104569,13.000000 14.000000,12.104569 14.000000,11.000000 C14.000000,11.000000 14.000000,4.000000 14.000000,4.000000 C14.000000,2.895431 13.104569,2.000000 12.000000,2.000000 C12.000000,2.000000 5.000000,2.000000 5.000000,2.000000 L 5.000000,2.000000 ZM5.000000,2.000000C3.895431,2.000000 3.000000,2.895431 3.000000,4.000000 C3.000000,4.000000 10.000000,4.000000 10.000000,4.000000 C11.104569,4.000000 12.000000,4.895431 12.000000,6.000000 C12.000000,6.000000 12.000000,13.000000 12.000000,13.000000 C13.104569,13.000000 14.000000,12.104569 14.000000,11.000000 C14.000000,11.000000 14.000000,4.000000 14.000000,4.000000 C14.000000,2.895431 13.104569,2.000000 12.000000,2.000000 C12.000000,2.000000 5.000000,2.000000 5.000000,2.000000 L 5.000000,2.000000 Z"
             fill="#FC7F7F"
             fill-opacity="0.600"
             stroke="#000000"
             stroke-width="0"
             stroke-dasharray="none"
             stroke-dashoffset="0"
             stroke-linecap="butt"
             stroke-linejoin="miter"
             stroke-miterlimit="4"
             id="path2"
             style="fill:#8da5f3;fill-opacity:0.60000002" />
          <path
             class="vector-data"
             d="M3.000000,4.000000C1.895430,4.000000 1.000000,4.895431 1.000000,6.000000 C1.000000,6.000000 1.000000,13.000000 1.000000,13.000000 C1.000000,14.104569 1.895430,15.000000 3.000000,15.000000 C3.000000,15.000000 10.000000,15.000000 10.000000,15.000000 C11.104569,15.000000 12.000000,14.104569 12.000000,13.000000 C12.000000,13.000000 12.000000,6.000000 12.000000,6.000000 C12.000000,4.895431 11.104569,4.000000 10.000000,4.000000 C10.000000,4.000000 3.000000,4.000000 3.000000,4.000000 L 3.000000,4.000000 ZM2.000000,9.000000C2.000000,8.447715 2.447715,8.000000 3.000000,8.000000 C3.552285,8.000000 4.000000,8.447715 4.000000,9.000000 C4.000000,9.000000 4.000000,10.000000 4.000000,10.000000 C4.000000,10.552285 3.552285,11.000000 3.000000,11.000000 C2.447715,11.000000 2.000000,10.552285 2.000000,10.000000 C2.000000,10.000000 2.000000,9.000000 2.000000,9.000000 L 2.000000,9.000000 ZM9.000000,9.000000C9.000000,8.447715 9.447715,8.000000 10.000000,8.000000 C10.552285,8.000000 11.000000,8.447715 11.000000,9.000000 C11.000000,9.000000 11.000000,10.000000 11.000000,10.000000 C11.000000,10.552285 10.552285,11.000000 10.000000,11.000000 C9.447715,11.000000 9.000000,10.552285 9.000000,10.000000 C9.000000,10.000000 9.000000,9.000000 9.000000,9.000000 L 9.000000,9.000000 ZM9.000000,12.000000C9.000000,13.104569 7.880712,14.000000 6.500000,14.000000 C5.119288,14.000000 4.000000,13.104569 4.000000,12.000000 C4.000000,12.000000 9.000000,12.000000 9.000000,12.000000 L 9.000000,12.000000 ZM3.000000,4.000000C1.895430,4.000000 1.000000,4.895431 1.000000,6.000000 C1.000000,6.000000 1.000000,13.000000 1.000000,13.000000 C1.000000,14.104569 1.895430,15.000000 3.000000,15.000000 C3.000000,15.000000 10.000000,15.000000 10.000000,15.000000 C11.104569,15.000000 12.000000,14.104569 12.000000,13.000000 C12.000000,13.000000 12.000000,6.000000 12.000000,6.000000 C12.000000,4.895431 11.104569,4.000000 10.000000,4.000000 C10.000000,4.000000 3.000000,4.000000 3.000000,4.000000 L 3.000000,4.000000 ZM2.000000,9.000000C2.000000,8.447715 2.447715,8.000000 3.000000,8.000000 C3.552285,8.000000 4.000000,8.447715 4.000000,9.000000 C4.000000,9.000000 4.000000,10.000000 4.000000,10.000000 C4.000000,10.552285 3.552285,11.000000 3.000000,11.000000 C2.447715,11.000000 2.000000,10.552285 2.000000,10.000000 C2.000000,10.000000 2.000000,9.000000 2.000000,9.000000 L 2.000000,9.000000 ZM9.000000,9.000000C9.000000,8.447715 9.447715,8.000000 10.000000,8.000000 C10.552285,8.000000 11.000000,8.447715 11.000000,9.000000 C11.000000,9.000000 11.000000,10.000000 11.000000,10.000000 C11.000000,10.552285 10.552285,11.000000 10.000000,11.000000 C9.447715,11.000000 9.000000,10.552285 9.000000,10.000000 C9.000000,10.000000 9.000000,9.000000 9.000000,9.000000 L 9.000000,9.000000 ZM9.000000,12.000000C9.000000,13.104569 7.880712,14.000000 6.500000,14.000000 C5.119288,14.000000 4.000000,13.104569 4.000000,12.000000 C4.000000,12.000000 9.000000,12.000000 9.000000,12.000000 L 9.000000,12.000000 Z"
             fill="#FC7F7F"
             stroke="#000000"
             stroke-width="0"
             stroke-dasharray="none"
             stroke-dashoffset="0"
             stroke-linecap="butt"
             stroke-linejoin="miter"
             stroke-miterlimit="4"
             id="path3"
             style="fill:#8da5f3;fill-opacity:1" />
        </g>
      </g>
      <path
         class="vector-data"
         d="M13.172000,11.172000C13.172000,11.172000 13.172000,13.172000 13.172000,13.172000 C13.172000,13.172000 16.172000,13.172000 16.172000,13.172000 C16.172000,13.172000 16.172000,11.172000 16.172000,11.172000 C16.172000,11.172000 13.172000,11.172000 13.172000,11.172000 L 13.172000,11.172000 ZM12.707000,14.293000C12.707000,14.293000 11.293000,15.707000 11.293000,15.707000 C11.293000,15.707000 12.707000,17.121000 12.707000,17.121000 C12.707000,17.121000 14.121000,15.707000 14.121000,15.707000 C14.121000,15.707000 12.707000,14.293000 12.707000,14.293000 L 12.707000,14.293000 ZM8.172000,16.172000C8.172000,16.172000 8.172000,19.172000 8.172000,19.172000 C8.172000,19.172000 10.172000,19.172000 10.172000,19.172000 C10.172000,19.172000 10.172000,16.172000 10.172000,16.172000 C10.172000,16.172000 8.172000,16.172000 8.172000,16.172000 L 8.172000,16.172000 ZM13.172000,11.172000C13.172000,11.172000 13.172000,13.172000 13.172000,13.172000 C13.172000,13.172000 16.172000,13.172000 16.172000,13.172000 C16.172000,13.172000 16.172000,11.172000 16.172000,11.172000 C16.172000,11.172000 13.172000,11.172000 13.172000,11.172000 L 13.172000,11.172000 ZM12.707000,14.293000C12.707000,14.293000 11.293000,15.707000 11.293000,15.707000 C11.293000,15.707000 12.707000,17.121000 12.707000,17.121000 C12.707000,17.121000 14.121000,15.707000 14.121000,15.707000 C14.121000,15.707000 12.707000,14.293000 12.707000,14.293000 L 12.707000,14.293000 ZM8.172000,16.172000C8.172000,16.172000 8.172000,19.172000 8.172000,19.172000 C8.172000,19.172000 10.172000,19.172000 10.172000,19.172000 C10.172000,19.172000 10.172000,16.172000 10.172000,16.172000 C10.172000,16.172000 8.172000,16.172000 8.172000,16.172000 L 8.172000,16.172000 Z"
         fill="#FC7F7F"
         stroke="#000000"
         stroke-width="0"
         stroke-dasharray="none"
         stroke-dashoffset="0"
         stroke-linecap="butt"
         stroke-linejoin="miter"
         stroke-miterlimit="4"
         id="path4"
         style="fill:#8da5f3;fill-opacity:1" />
    </g>
  </g>
</svg>
