<?xml version="1.0" encoding="UTF-8" standalone="no"?>
<svg
   viewbox="0 0 18 18"
   width="18"
   height="18"
   version="1.1"
   id="svg4"
   sodipodi:docname="DirectionalSprite2D.svg"
   inkscape:version="1.3.1 (91b66b0783, 2023-11-16)"
   xmlns:inkscape="http://www.inkscape.org/namespaces/inkscape"
   xmlns:sodipodi="http://sodipodi.sourceforge.net/DTD/sodipodi-0.dtd"
   xmlns="http://www.w3.org/2000/svg"
   xmlns:svg="http://www.w3.org/2000/svg">
  <sodipodi:namedview
     id="namedview4"
     pagecolor="#ffffff"
     bordercolor="#000000"
     borderopacity="0.25"
     inkscape:showpageshadow="2"
     inkscape:pageopacity="0.0"
     inkscape:pagecheckerboard="0"
     inkscape:deskcolor="#d1d1d1"
     inkscape:zoom="45.166667"
     inkscape:cx="9"
     inkscape:cy="9"
     inkscape:window-width="1920"
     inkscape:window-height="1009"
     inkscape:window-x="1912"
     inkscape:window-y="-8"
     inkscape:window-maximized="1"
     inkscape:current-layer="g4" />
  <defs
     id="defs1" />
  <g
     transform="matrix(1, 0, 0, 1, -0.9999999999999999, -0.9999999999999999)"
     id="g4">
    <g
       transform="matrix(1, 0, 0, 1, 0, 0)"
       id="g3">
      <g
         transform="matrix(1, 0, 0, 1, 0, 0)"
         id="g1">
        <path
           class="vector-data"
           d="M5.000000,1.000000C2.790861,1.000000 1.000000,2.790861 1.000000,5.000000 C1.000000,5.000000 1.000000,11.000000 1.000000,11.000000 C1.000000,13.209139 2.790861,15.000000 5.000000,15.000000 C5.000000,15.000000 11.000000,15.000000 11.000000,15.000000 C13.209139,15.000000 15.000000,13.209139 15.000000,11.000000 C15.000000,11.000000 15.000000,5.000000 15.000000,5.000000 C15.000000,2.790861 13.209139,1.000000 11.000000,1.000000 C11.000000,1.000000 5.000000,1.000000 5.000000,1.000000 L 5.000000,1.000000 ZM3.000000,7.000000C3.000000,6.447715 3.447715,6.000000 4.000000,6.000000 C4.552285,6.000000 5.000000,6.447715 5.000000,7.000000 C5.000000,7.000000 5.000000,9.000000 5.000000,9.000000 C5.000000,9.552285 4.552285,10.000000 4.000000,10.000000 C3.447715,10.000000 3.000000,9.552285 3.000000,9.000000 C3.000000,9.000000 3.000000,7.000000 3.000000,7.000000 L 3.000000,7.000000 ZM13.000000,9.000000C13.000000,9.552285 12.552285,10.000000 12.000000,10.000000 C11.447715,10.000000 11.000000,9.552285 11.000000,9.000000 C11.000000,9.000000 11.000000,7.000000 11.000000,7.000000 C11.000000,6.447715 11.447715,6.000000 12.000000,6.000000 C12.552285,6.000000 13.000000,6.447715 13.000000,7.000000 C13.000000,7.000000 13.000000,9.000000 13.000000,9.000000 L 13.000000,9.000000 ZM10.828000,12.828000C9.266001,14.389527 6.733999,14.389527 5.172000,12.828000 C4.793028,12.435621 4.798448,11.811915 5.184181,11.426182 C5.569915,11.040447 6.193621,11.035028 6.586000,11.414000 C7.367000,12.194764 8.633000,12.194764 9.414000,11.414000 C9.806379,11.035028 10.430085,11.040447 10.815819,11.426182 C11.201552,11.811915 11.206972,12.435621 10.828000,12.828000 C10.828000,12.828000 10.828000,12.828000 10.828000,12.828000 L 10.828000,12.828000 ZM5.000000,1.000000C2.790861,1.000000 1.000000,2.790861 1.000000,5.000000 C1.000000,5.000000 1.000000,11.000000 1.000000,11.000000 C1.000000,13.209139 2.790861,15.000000 5.000000,15.000000 C5.000000,15.000000 11.000000,15.000000 11.000000,15.000000 C13.209139,15.000000 15.000000,13.209139 15.000000,11.000000 C15.000000,11.000000 15.000000,5.000000 15.000000,5.000000 C15.000000,2.790861 13.209139,1.000000 11.000000,1.000000 C11.000000,1.000000 5.000000,1.000000 5.000000,1.000000 L 5.000000,1.000000 ZM3.000000,7.000000C3.000000,6.447715 3.447715,6.000000 4.000000,6.000000 C4.552285,6.000000 5.000000,6.447715 5.000000,7.000000 C5.000000,7.000000 5.000000,9.000000 5.000000,9.000000 C5.000000,9.552285 4.552285,10.000000 4.000000,10.000000 C3.447715,10.000000 3.000000,9.552285 3.000000,9.000000 C3.000000,9.000000 3.000000,7.000000 3.000000,7.000000 L 3.000000,7.000000 ZM13.000000,9.000000C13.000000,9.552285 12.552285,10.000000 12.000000,10.000000 C11.447715,10.000000 11.000000,9.552285 11.000000,9.000000 C11.000000,9.000000 11.000000,7.000000 11.000000,7.000000 C11.000000,6.447715 11.447715,6.000000 12.000000,6.000000 C12.552285,6.000000 13.000000,6.447715 13.000000,7.000000 C13.000000,7.000000 13.000000,9.000000 13.000000,9.000000 L 13.000000,9.000000 ZM10.828000,12.828000C9.266001,14.389527 6.733999,14.389527 5.172000,12.828000 C4.793028,12.435621 4.798448,11.811915 5.184181,11.426182 C5.569915,11.040447 6.193621,11.035028 6.586000,11.414000 C7.367000,12.194764 8.633000,12.194764 9.414000,11.414000 C9.806379,11.035028 10.430085,11.040447 10.815819,11.426182 C11.201552,11.811915 11.206972,12.435621 10.828000,12.828000 C10.828000,12.828000 10.828000,12.828000 10.828000,12.828000 L 10.828000,12.828000 Z"
           fill="#FC7F7F"
           stroke="#000000"
           stroke-width="0"
           stroke-dasharray="none"
           stroke-dashoffset="0"
           stroke-linecap="butt"
           stroke-linejoin="miter"
           stroke-miterlimit="4"
           id="path1"
           style="fill:#8da5f3;fill-opacity:1" />
      </g>
      <g
         transform="matrix(1, 0, 0, 1, 0, 0)"
         id="g2">
        <path
           class="vector-data"
           d="M16.172000,11.172000C16.172000,11.172000 16.172000,13.172000 16.172000,13.172000 C16.172000,13.172000 19.172000,13.172000 19.172000,13.172000 C19.172000,13.172000 19.172000,11.172000 19.172000,11.172000 C19.172000,11.172000 16.172000,11.172000 16.172000,11.172000 L 16.172000,11.172000 ZM15.707000,14.293000C15.707000,14.293000 14.293000,15.707000 14.293000,15.707000 C14.293000,15.707000 15.707000,17.121000 15.707000,17.121000 C15.707000,17.121000 17.121000,15.707000 17.121000,15.707000 C17.121000,15.707000 15.707000,14.293000 15.707000,14.293000 L 15.707000,14.293000 ZM11.172000,16.172000C11.172000,16.172000 11.172000,19.172000 11.172000,19.172000 C11.172000,19.172000 13.172000,19.172000 13.172000,19.172000 C13.172000,19.172000 13.172000,16.172000 13.172000,16.172000 C13.172000,16.172000 11.172000,16.172000 11.172000,16.172000 L 11.172000,16.172000 ZM16.172000,11.172000C16.172000,11.172000 16.172000,13.172000 16.172000,13.172000 C16.172000,13.172000 19.172000,13.172000 19.172000,13.172000 C19.172000,13.172000 19.172000,11.172000 19.172000,11.172000 C19.172000,11.172000 16.172000,11.172000 16.172000,11.172000 L 16.172000,11.172000 ZM15.707000,14.293000C15.707000,14.293000 14.293000,15.707000 14.293000,15.707000 C14.293000,15.707000 15.707000,17.121000 15.707000,17.121000 C15.707000,17.121000 17.121000,15.707000 17.121000,15.707000 C17.121000,15.707000 15.707000,14.293000 15.707000,14.293000 L 15.707000,14.293000 ZM11.172000,16.172000C11.172000,16.172000 11.172000,19.172000 11.172000,19.172000 C11.172000,19.172000 13.172000,19.172000 13.172000,19.172000 C13.172000,19.172000 13.172000,16.172000 13.172000,16.172000 C13.172000,16.172000 11.172000,16.172000 11.172000,16.172000 L 11.172000,16.172000 Z"
           fill="#FC7F7F"
           stroke="#000000"
           stroke-width="0"
           stroke-dasharray="none"
           stroke-dashoffset="0"
           stroke-linecap="butt"
           stroke-linejoin="miter"
           stroke-miterlimit="4"
           id="path2"
           style="fill:#8da5f3;fill-opacity:1" />
      </g>
    </g>
  </g>
</svg>
